<svg width="64" height="64" viewBox="0 0 64 64" fill="none" xmlns="http://www.w3.org/2000/svg">
<g clip-path="url(#clip0)">
<path d="M46 26H18C16.895 26 16 24.9558 16 23.6667V7.33333C16 6.04419 16.895 5 18 5H46C47.105 5 48 6.04419 48 7.33333V23.6667C48 24.9558 47.105 26 46 26Z" fill="#22A0B6"/>
<path d="M16.5161 0.5H47.4839C50.0535 0.5 52.1452 2.59167 52.1452 5.16129V26.5953C52.1452 28.1856 51.769 29.7814 51.0574 31.2043L51.0571 31.2047C50.4189 32.4838 50.0806 33.9125 50.0806 35.3402V58.8387C50.0806 61.4083 47.989 63.5 45.4194 63.5H18.5806C16.011 63.5 13.9194 61.4083 13.9194 58.8387V35.3402C13.9194 33.9136 13.5811 32.4838 12.9428 31.2055L12.9428 31.2055C12.2309 29.7804 11.8548 28.1855 11.8548 26.5953V5.16129C11.8548 2.59167 13.9465 0.5 16.5161 0.5ZM50.104 30.7301L50.1041 30.7299C50.7424 29.4517 51.0806 28.0229 51.0806 26.5953V5.16129C51.0806 3.17799 49.4672 1.56452 47.4839 1.56452H16.5161C14.5328 1.56452 12.9194 3.17799 12.9194 5.16129V26.5953C12.9194 28.0229 13.2576 29.4517 13.8959 30.7299L13.896 30.7301C14.6078 32.1541 14.9839 33.7499 14.9839 35.3402V58.8387C14.9839 60.822 16.5973 62.4355 18.5806 62.4355H45.4194C47.4027 62.4355 49.0161 60.822 49.0161 58.8387V35.3402C49.0161 33.7499 49.3922 32.1541 50.104 30.7301Z" fill="#322153" stroke="#322153"/>
<path d="M19.1129 57.8065V58.3065H19.6129H23.7439H24.2444L24.2439 57.806L24.2419 55.7414L24.2414 55.2419H23.7419H19.6129H19.1129V55.7419V57.8065ZM19.6129 54.1774H23.7419C24.6044 54.1774 25.3064 54.8795 25.3064 55.7419V57.8065C25.3064 58.6689 24.6044 59.371 23.7419 59.371H19.6129C18.7504 59.371 18.0484 58.6689 18.0484 57.8065V55.7419C18.0484 54.8795 18.7504 54.1774 19.6129 54.1774Z" fill="#322153" stroke="#322153"/>
<path d="M19.1129 49.5484V50.0484H19.6129H23.7439H24.2444L24.2439 49.5479L24.2419 47.4834L24.2414 46.9839H23.7419H19.6129H19.1129V47.4839V49.5484ZM19.6129 45.9194H23.7419C24.6044 45.9194 25.3064 46.6214 25.3064 47.4839V49.5484C25.3064 50.4109 24.6044 51.1129 23.7419 51.1129H19.6129C18.7504 51.1129 18.0484 50.4109 18.0484 49.5484V47.4839C18.0484 46.6214 18.7504 45.9194 19.6129 45.9194Z" fill="#322153" stroke="#322153"/>
<path d="M19.1129 41.2903V41.7903H19.6129H23.7439H24.2444L24.2439 41.2898L24.2419 39.2253L24.2414 38.7258H23.7419H19.6129H19.1129V39.2258V41.2903ZM19.6129 37.6613H23.7419C24.6044 37.6613 25.3064 38.3633 25.3064 39.2258V41.2903C25.3064 42.1528 24.6044 42.8548 23.7419 42.8548H19.6129C18.7504 42.8548 18.0484 42.1528 18.0484 41.2903V39.2258C18.0484 38.3633 18.7504 37.6613 19.6129 37.6613Z" fill="#322153" stroke="#322153"/>
<path d="M29.4355 57.8065V58.3065H29.9355H34.0665H34.567L34.5665 57.806L34.5645 55.7414L34.564 55.2419H34.0645H29.9355H29.4355V55.7419V57.8065ZM29.9355 54.1774H34.0645C34.927 54.1774 35.629 54.8795 35.629 55.7419V57.8065C35.629 58.6689 34.927 59.371 34.0645 59.371H29.9355C29.073 59.371 28.371 58.6689 28.371 57.8065V55.7419C28.371 54.8795 29.073 54.1774 29.9355 54.1774Z" fill="#322153" stroke="#322153"/>
<path d="M29.4355 49.5484V50.0484H29.9355H34.0665H34.567L34.5665 49.5479L34.5645 47.4834L34.564 46.9839H34.0645H29.9355H29.4355V47.4839V49.5484ZM29.9355 45.9194H34.0645C34.927 45.9194 35.629 46.6214 35.629 47.4839V49.5484C35.629 50.4109 34.927 51.1129 34.0645 51.1129H29.9355C29.073 51.1129 28.371 50.4109 28.371 49.5484V47.4839C28.371 46.6214 29.073 45.9194 29.9355 45.9194Z" fill="#322153" stroke="#322153"/>
<path d="M29.4355 41.2903V41.7903H29.9355H34.0665H34.567L34.5665 41.2898L34.5645 39.2253L34.564 38.7258H34.0645H29.9355H29.4355V39.2258V41.2903ZM29.9355 37.6613H34.0645C34.927 37.6613 35.629 38.3633 35.629 39.2258V41.2903C35.629 42.1528 34.927 42.8548 34.0645 42.8548H29.9355C29.073 42.8548 28.371 42.1528 28.371 41.2903V39.2258C28.371 38.3633 29.073 37.6613 29.9355 37.6613Z" fill="#322153" stroke="#322153"/>
<path d="M28.9032 29.4032H35.0968C36.5278 29.4032 37.6935 30.569 37.6935 32C37.6935 33.431 36.5278 34.5968 35.0968 34.5968H28.9032C27.4722 34.5968 26.3064 33.431 26.3064 32C26.3064 30.569 27.4722 29.4032 28.9032 29.4032ZM28.9032 33.5323H35.0968C35.9428 33.5323 36.629 32.8444 36.629 32C36.629 31.1556 35.9428 30.4677 35.0968 30.4677H28.9032C28.0572 30.4677 27.371 31.1556 27.371 32C27.371 32.8444 28.0572 33.5323 28.9032 33.5323Z" fill="#322153" stroke="#322153"/>
<path d="M39.7581 57.8065V58.3065H40.2581H44.3891H44.8896L44.8891 57.806L44.8871 55.7414L44.8866 55.2419H44.3871H40.2581H39.7581V55.7419V57.8065ZM40.2581 54.1774H44.3871C45.2496 54.1774 45.9516 54.8795 45.9516 55.7419V57.8065C45.9516 58.6689 45.2496 59.371 44.3871 59.371H40.2581C39.3956 59.371 38.6936 58.6689 38.6936 57.8065V55.7419C38.6936 54.8795 39.3956 54.1774 40.2581 54.1774Z" fill="#322153" stroke="#322153"/>
<path d="M39.7581 49.5484V50.0484H40.2581H44.3891H44.8896L44.8891 49.5479L44.8871 47.4834L44.8866 46.9839H44.3871H40.2581H39.7581V47.4839V49.5484ZM40.2581 45.9194H44.3871C45.2496 45.9194 45.9516 46.6214 45.9516 47.4839V49.5484C45.9516 50.4109 45.2496 51.1129 44.3871 51.1129H40.2581C39.3956 51.1129 38.6936 50.4109 38.6936 49.5484V47.4839C38.6936 46.6214 39.3956 45.9194 40.2581 45.9194Z" fill="#322153" stroke="#322153"/>
<path d="M39.7581 41.2903V41.7903H40.2581H44.3891H44.8896L44.8891 41.2898L44.8871 39.2253L44.8866 38.7258H44.3871H40.2581H39.7581V39.2258V41.2903ZM40.2581 37.6613H44.3871C45.2496 37.6613 45.9516 38.3633 45.9516 39.2258V41.2903C45.9516 42.1528 45.2496 42.8548 44.3871 42.8548H40.2581C39.3956 42.8548 38.6936 42.1528 38.6936 41.2903V39.2258C38.6936 38.3633 39.3956 37.6613 40.2581 37.6613Z" fill="#322153" stroke="#322153"/>
<path d="M42.3226 30.4677H41.8226V30.9677V33.0323V33.5323H42.3226H44.3871H44.8871V33.0323V30.9677V30.4677H44.3871H42.3226ZM45.9516 29.4032V34.5968H40.7581V29.4032H45.9516Z" fill="#322153" stroke="#322153"/>
<path d="M21.6774 33.5323H22.1774V33.0323V30.9677V30.4677H21.6774H19.6129H19.1129V30.9677V33.0323V33.5323H19.6129H21.6774ZM18.0484 29.4032H23.2419V34.5968H18.0484V29.4032Z" fill="#322153" stroke="#322153"/>
</g>
<defs>
<clipPath id="clip0">
<rect width="64" height="64" fill="white"/>
</clipPath>
</defs>
</svg>
