<svg width="64" height="64" viewBox="0 0 64 64" fill="none" xmlns="http://www.w3.org/2000/svg">
<g clip-path="url(#clip0)">
<path d="M11.0001 28.0001H20.0001V38.0001H11.0001V28.0001Z" stroke="#322153" stroke-width="2"/>
<path d="M38 14.0001C37.6106 15.5888 34 17.3223 34 19.1429V26.0001H63V19.1429C63 17.3223 58.8894 15.5888 58.5 14.0001H38Z" fill="#22A0B6"/>
<path d="M1.03226 38.1935V43.3548C1.03226 44.0721 0.500111 48.5002 8.00003 51.0002L8.50003 54.5002H15H22.5001C22.5001 49.5002 28.0001 49.5002 29.5001 45.5002L29.9355 38.1935H1.03226Z" fill="#22A0B6"/>
<path d="M56.2742 12.6265V13.0253L56.663 13.114C60.5727 14.006 63.5 17.5051 63.5 21.6774V26.3387H55.742H55.242V26.8387V56.7742C55.242 60.4824 52.2234 63.5 48.5162 63.5C44.8089 63.5 41.7904 60.4824 41.7904 56.7742V26.8387V26.3387H41.2904H33.5323V21.6774C33.5323 17.5051 36.4596 14.006 40.3693 13.114L40.7581 13.0253V12.6265V7.22581C40.7581 6.10407 41.4809 5.15005 42.4906 4.79L42.8226 4.67159V4.31905V3.09677C42.8226 1.66576 43.9884 0.5 45.4194 0.5H51.6129C53.0439 0.5 54.2097 1.66576 54.2097 3.09677V4.31905V4.67159L54.5418 4.79C55.5514 5.15005 56.2742 6.10407 56.2742 7.22581V12.6265ZM52.6452 4.62903H53.1452V4.12903V3.09677C53.1452 2.2524 52.459 1.56452 51.6129 1.56452H45.4194C44.5734 1.56452 43.8871 2.2524 43.8871 3.09677V4.12903V4.62903H44.3871H52.6452ZM54.7097 12.8871H55.2097V12.3871V7.22581C55.2097 6.38143 54.5235 5.69355 53.6774 5.69355H43.3549C42.5089 5.69355 41.8226 6.38143 41.8226 7.22581V12.3871V12.8871H42.3226H54.7097ZM43.3549 26.3387H42.8549V26.8387V56.7742C42.8549 59.8961 45.3942 62.4355 48.5162 62.4355C51.6381 62.4355 54.1774 59.8961 54.1774 56.7742V26.8387V26.3387H53.6774H51.6129H51.1129V26.8387V56.7742C51.1129 58.2052 49.9472 59.371 48.5162 59.371C47.0851 59.371 45.9194 58.2052 45.9194 56.7742V26.8387V26.3387H45.4194H43.3549ZM47.4839 26.3387H46.9839V26.8387V56.7742C46.9839 57.6186 47.6701 58.3064 48.5162 58.3064C49.3622 58.3064 50.0484 57.6186 50.0484 56.7742V26.8387V26.3387H49.5484H47.4839ZM34.5968 24.7742V25.2742H35.0968H61.9355H62.4355V24.7742V22.7097V20.6452V20.1452H62.2736C61.5605 16.6178 58.4457 13.9516 54.7097 13.9516H42.3226C38.5866 13.9516 35.4719 16.6178 34.7587 20.1452H34.5968V20.6452V22.7097V24.7742Z" fill="#322153" stroke="#322153"/>
<path d="M7.72581 51.5489V51.1077L7.28803 51.0528C3.46762 50.5736 0.5 47.3024 0.5 43.3548V37.6613H30.4677V43.3548C30.4677 47.3024 27.5001 50.5736 23.6797 51.0528L23.2419 51.1077V51.5489V56.7742C23.2419 57.8959 22.5191 58.8499 21.5095 59.21L21.1774 59.3284V59.6809V60.9032C21.1774 62.3342 20.0117 63.5 18.5806 63.5H12.3871C10.9561 63.5 9.79032 62.3342 9.79032 60.9032V59.6809V59.3284L9.45826 59.21C8.4486 58.8499 7.72581 57.8959 7.72581 56.7742V51.5489ZM11.3548 59.371H10.8548V59.871V60.9032C10.8548 61.7476 11.5411 62.4355 12.3871 62.4355H18.5806C19.4267 62.4355 20.1129 61.7476 20.1129 60.9032V59.871V59.371H19.6129H11.3548ZM9.29032 55.2419H8.79032V55.7419V56.7742C8.79032 57.6186 9.47656 58.3064 10.3226 58.3064H20.6452C21.4912 58.3064 22.1774 57.6186 22.1774 56.7742V55.7419V55.2419H21.6774H9.29032ZM29.4032 39.2258V38.7258H28.9032H2.06452H1.56452V39.2258V41.2903V43.3548C1.56452 47.0468 4.56609 50.0484 8.25806 50.0484H8.79032V53.6774V54.1774H9.29032H21.6774H22.1774V53.6774V50.0484H22.7097C26.4016 50.0484 29.4032 47.0468 29.4032 43.3548V41.2903V39.2258Z" fill="#322153" stroke="#322153"/>
<path d="M27.7795 14.417L27.4141 14.9547L28.0275 15.1699C29.4481 15.6683 30.4677 17.0035 30.4677 18.5806C30.4677 20.1577 29.4481 21.493 28.0275 21.9914L27.4141 22.2066L27.7795 22.7443C28.1732 23.3234 28.4032 24.0219 28.4032 24.7742C28.4032 26.7753 26.7753 28.4032 24.7742 28.4032H6.19355C4.19247 28.4032 2.56452 26.7753 2.56452 24.7742C2.56452 24.0219 2.79458 23.3234 3.18823 22.7443L3.55364 22.2066L2.94023 21.9914C1.51965 21.493 0.5 20.1577 0.5 18.5806C0.5 17.0035 1.51965 15.6683 2.94023 15.1699L3.55364 14.9547L3.18823 14.417C2.79458 13.8378 2.56452 13.1394 2.56452 12.3871C2.56452 10.81 3.58416 9.47476 5.00475 8.97634L5.61816 8.76112L5.25274 8.22347C4.8591 7.6443 4.62903 6.94582 4.62903 6.19355C4.62903 4.19247 6.25699 2.56451 8.25806 2.56451H18.5806C20.5817 2.56451 22.2097 4.19247 22.2097 6.19355C22.2097 6.85019 22.02 7.46331 21.7036 8.00635L21.2656 8.75806H22.1356H24.7742C26.7753 8.75806 28.4032 10.386 28.4032 12.3871C28.4032 13.1394 28.1732 13.8378 27.7795 14.417ZM18.5806 3.62903H8.25806C6.84331 3.62903 5.69355 4.7788 5.69355 6.19355C5.69355 7.6083 6.84331 8.75806 8.25806 8.75806H18.5806C19.9954 8.75806 21.1452 7.6083 21.1452 6.19355C21.1452 4.7788 19.9954 3.62903 18.5806 3.62903ZM24.7742 9.82258H6.19355C4.7788 9.82258 3.62903 10.9723 3.62903 12.3871C3.62903 13.8018 4.7788 14.9516 6.19355 14.9516H24.7742C26.1889 14.9516 27.3387 13.8018 27.3387 12.3871C27.3387 10.9723 26.1889 9.82258 24.7742 9.82258ZM6.19355 27.3387H24.7742C26.1889 27.3387 27.3387 26.1889 27.3387 24.7742C27.3387 23.3594 26.1889 22.2097 24.7742 22.2097H6.19355C4.7788 22.2097 3.62903 23.3594 3.62903 24.7742C3.62903 26.1889 4.7788 27.3387 6.19355 27.3387ZM4.12903 21.1452H26.8387C28.2535 21.1452 29.4032 19.9954 29.4032 18.5806C29.4032 17.1659 28.2535 16.0161 26.8387 16.0161H4.12903C2.71428 16.0161 1.56452 17.1659 1.56452 18.5806C1.56452 19.9954 2.71428 21.1452 4.12903 21.1452Z" fill="#322153" stroke="#322153"/>
</g>
<defs>
<clipPath id="clip0">
<rect width="64" height="64" fill="white"/>
</clipPath>
</defs>
</svg>
