<svg width="64" height="64" viewBox="0 0 64 64" fill="none" xmlns="http://www.w3.org/2000/svg">
<path d="M58 28V48H26V28H58ZM47.5 39.4453C47.5 38.5091 47.0571 37.6089 46.2446 36.8818L42 32.5454L38.2554 36.8818C37.4429 37.6089 37 38.5091 37 39.4453C37 41.6634 38.0451 44 41.0481 44H42.5C44.0018 44 45.5817 43.0088 46.5661 42.2817C47.5505 41.5546 47.5 40.5546 47.5 39.4453Z" fill="#22A0B6"/>
<path d="M25.8064 22.7097V30.9057C23.1845 30.5549 22.8437 28.9032 19.6028 28.9032C15.9899 28.9032 15.9899 30.9677 12.377 30.9677C9.18699 30.9677 8.81552 29.3574 6.28629 28.9859C6.44153 26.8594 6.80241 24.7535 7.35987 22.7097H25.8064Z" fill="#22A0B6"/>
<path d="M25.8065 52.6452V54.7097H5.6875C5.71875 54.6376 5.7495 54.565 5.78075 54.503L6.52369 53.0272C7.65927 50.7354 8.25806 48.2167 8.25806 45.6568C8.25806 44.1804 8.05141 42.7147 7.66986 41.2903H7.65927C7.65927 41.2389 7.63861 41.187 7.62853 41.1356L7.48387 40.6401C6.937 38.7198 6.55494 36.7586 6.24496 33.1043H6.25554C8.81552 33.4763 9.17692 35.0968 12.377 35.0968C15.9899 35.0968 15.9899 33.0323 19.6028 33.0323C22.8437 33.0323 23.1845 34.684 25.8065 35.0348V52.6452Z" fill="#22A0B6"/>
<mask id="path-4-inside-1" fill="white">
<path d="M56.9808 16.9289L51.6129 12.9032V8.25806H53.6774V3.09677C53.6774 1.38962 52.2878 0 50.5806 0H34.0645C32.3574 0 30.9677 1.38962 30.9677 3.09677V8.25806H33.0323V12.9032L27.6643 16.9289C27.4289 17.1053 27.2072 17.2964 26.9975 17.499C26.2938 15.9007 25.4677 14.3558 24.5328 12.8856L22.7097 10.0222V8.25806H24.7742V3.09677C24.7742 1.38962 23.3846 0 21.6774 0H13.4194C11.7122 0 10.3226 1.38962 10.3226 3.09677V8.25806H12.3871V10.0222L10.561 12.8906C7.02873 18.4425 5.16129 24.8558 5.16129 31.4355C5.16129 34.6457 5.60836 37.8382 6.49092 40.9259L6.63205 41.4204C7.02671 42.8004 7.2258 44.2273 7.2258 45.6608C7.2258 48.0444 6.66229 50.4309 5.59576 52.5635L4.85483 54.0469C4.38004 54.9955 4.12903 56.06 4.12903 57.122C4.12903 60.9148 7.21421 64 11.0071 64H11.9597C13.1779 64 14.3216 63.5262 15.1825 62.6653C15.6522 62.1946 16.2777 61.9355 16.9435 61.9355H18.1532C18.819 61.9355 19.4446 62.1946 19.9153 62.6653C20.7752 63.5262 21.9188 64 23.1371 64H24.0897C25.4894 64 26.8327 63.5539 27.9723 62.7697C29.124 63.5459 30.5096 64 32 64H52.6452C56.6295 64 59.871 60.7576 59.871 56.7742V22.7097C59.871 20.4471 58.7903 18.2863 56.9808 16.9289ZM57.8064 24.7742V55.7419H26.8387V53.6774V51.6129V22.7097C26.8387 21.9914 26.9985 21.2903 27.2817 20.6452H57.3624C57.6467 21.2903 57.8064 21.9914 57.8064 22.7097V24.7742ZM7.2258 31.4355C7.2258 31.0625 7.25252 30.692 7.26512 30.3206C7.60987 30.4662 7.92238 30.6426 8.25604 30.8327C9.21471 31.3795 10.3009 31.999 12.38 31.999C14.4597 31.999 15.5459 31.3785 16.5045 30.8306C17.3463 30.3503 18.0726 29.9355 19.6048 29.9355C21.1386 29.9355 21.8654 30.3503 22.7077 30.8327C23.2772 31.1578 23.9093 31.5146 24.7732 31.748V33.7011C24.4078 33.5514 24.0806 33.3679 23.7303 33.1683C22.7737 32.6205 21.6865 32 19.6048 32C17.5247 32 16.4385 32.6205 15.4798 33.1683C14.6386 33.6497 13.9128 34.0645 12.38 34.0645C10.8478 34.0645 10.1215 33.6507 9.27772 33.1694C8.71723 32.8498 8.09576 32.5005 7.25453 32.2671C7.24748 31.9899 7.2258 31.7132 7.2258 31.4355ZM33.0323 3.09677C33.0323 2.52823 33.496 2.06452 34.0645 2.06452H50.5806C51.1492 2.06452 51.6129 2.52823 51.6129 3.09677V6.19355H33.0323V3.09677ZM49.5484 8.25806V12.3871H35.0968V8.25806H49.5484ZM34.4083 14.4516H50.2359L55.7409 18.5806H28.9032L34.4083 14.4516ZM12.3871 3.09677C12.3871 2.52823 12.8508 2.06452 13.4194 2.06452H21.6774C22.246 2.06452 22.7097 2.52823 22.7097 3.09677V6.19355H12.3871V3.09677ZM12.3034 13.9995L14.4516 10.623V8.25806H20.6452V10.624L22.7913 13.9955C23.8846 15.7132 24.8115 17.5444 25.564 19.4395C25.0539 20.443 24.7742 21.563 24.7742 22.7097V29.5721C24.4088 29.4224 24.0816 29.2389 23.7318 29.0393C22.7737 28.4914 21.6865 27.871 19.6048 27.871C17.5247 27.871 16.4385 28.4914 15.4798 29.0393C14.6386 29.5207 13.9128 29.9355 12.38 29.9355C10.8488 29.9355 10.1215 29.5207 9.28024 29.0393C8.75453 28.7399 8.17238 28.4138 7.40826 28.1825C7.9133 23.1492 9.56703 18.2989 12.3034 13.9995ZM23.1371 61.9355C22.4713 61.9355 21.8458 61.6764 21.375 61.2056C20.5151 60.3448 19.3715 59.871 18.1532 59.871H16.9435C15.7253 59.871 14.5816 60.3448 13.7208 61.2056C13.251 61.6764 12.6255 61.9355 11.9597 61.9355H11.0071C8.35282 61.9355 6.19354 59.7762 6.19354 57.122C6.19354 56.379 6.36895 55.6346 6.70161 54.9698L7.44254 53.4864C8.65121 51.0701 9.29032 48.3644 9.29032 45.6608C9.29032 44.5388 9.1749 43.4219 8.96119 42.3226L8.4501 40.2581C7.91834 38.376 7.57358 36.4511 7.39012 34.5096C7.68598 34.6436 7.96371 34.7964 8.25604 34.9627C9.21471 35.5086 10.3009 36.129 12.38 36.129C14.4597 36.129 15.5459 35.5076 16.5045 34.9607C17.3463 34.4793 18.0726 34.0645 19.6048 34.0645C21.1386 34.0645 21.8654 34.4793 22.7077 34.9607C23.2772 35.2868 23.9093 35.6436 24.7732 35.877V56.7742C24.7732 58.5 25.3831 60.0857 26.3967 61.3296C25.6951 61.7167 24.9062 61.9355 24.0897 61.9355H23.1371ZM52.6452 61.9355H32C29.5081 61.9355 27.4229 60.1588 26.943 57.8064H57.7021C57.2223 60.1588 55.1371 61.9355 52.6452 61.9355Z"/>
</mask>
<path d="M56.9808 16.9289L51.6129 12.9032V8.25806H53.6774V3.09677C53.6774 1.38962 52.2878 0 50.5806 0H34.0645C32.3574 0 30.9677 1.38962 30.9677 3.09677V8.25806H33.0323V12.9032L27.6643 16.9289C27.4289 17.1053 27.2072 17.2964 26.9975 17.499C26.2938 15.9007 25.4677 14.3558 24.5328 12.8856L22.7097 10.0222V8.25806H24.7742V3.09677C24.7742 1.38962 23.3846 0 21.6774 0H13.4194C11.7122 0 10.3226 1.38962 10.3226 3.09677V8.25806H12.3871V10.0222L10.561 12.8906C7.02873 18.4425 5.16129 24.8558 5.16129 31.4355C5.16129 34.6457 5.60836 37.8382 6.49092 40.9259L6.63205 41.4204C7.02671 42.8004 7.2258 44.2273 7.2258 45.6608C7.2258 48.0444 6.66229 50.4309 5.59576 52.5635L4.85483 54.0469C4.38004 54.9955 4.12903 56.06 4.12903 57.122C4.12903 60.9148 7.21421 64 11.0071 64H11.9597C13.1779 64 14.3216 63.5262 15.1825 62.6653C15.6522 62.1946 16.2777 61.9355 16.9435 61.9355H18.1532C18.819 61.9355 19.4446 62.1946 19.9153 62.6653C20.7752 63.5262 21.9188 64 23.1371 64H24.0897C25.4894 64 26.8327 63.5539 27.9723 62.7697C29.124 63.5459 30.5096 64 32 64H52.6452C56.6295 64 59.871 60.7576 59.871 56.7742V22.7097C59.871 20.4471 58.7903 18.2863 56.9808 16.9289ZM57.8064 24.7742V55.7419H26.8387V53.6774V51.6129V22.7097C26.8387 21.9914 26.9985 21.2903 27.2817 20.6452H57.3624C57.6467 21.2903 57.8064 21.9914 57.8064 22.7097V24.7742ZM7.2258 31.4355C7.2258 31.0625 7.25252 30.692 7.26512 30.3206C7.60987 30.4662 7.92238 30.6426 8.25604 30.8327C9.21471 31.3795 10.3009 31.999 12.38 31.999C14.4597 31.999 15.5459 31.3785 16.5045 30.8306C17.3463 30.3503 18.0726 29.9355 19.6048 29.9355C21.1386 29.9355 21.8654 30.3503 22.7077 30.8327C23.2772 31.1578 23.9093 31.5146 24.7732 31.748V33.7011C24.4078 33.5514 24.0806 33.3679 23.7303 33.1683C22.7737 32.6205 21.6865 32 19.6048 32C17.5247 32 16.4385 32.6205 15.4798 33.1683C14.6386 33.6497 13.9128 34.0645 12.38 34.0645C10.8478 34.0645 10.1215 33.6507 9.27772 33.1694C8.71723 32.8498 8.09576 32.5005 7.25453 32.2671C7.24748 31.9899 7.2258 31.7132 7.2258 31.4355ZM33.0323 3.09677C33.0323 2.52823 33.496 2.06452 34.0645 2.06452H50.5806C51.1492 2.06452 51.6129 2.52823 51.6129 3.09677V6.19355H33.0323V3.09677ZM49.5484 8.25806V12.3871H35.0968V8.25806H49.5484ZM34.4083 14.4516H50.2359L55.7409 18.5806H28.9032L34.4083 14.4516ZM12.3871 3.09677C12.3871 2.52823 12.8508 2.06452 13.4194 2.06452H21.6774C22.246 2.06452 22.7097 2.52823 22.7097 3.09677V6.19355H12.3871V3.09677ZM12.3034 13.9995L14.4516 10.623V8.25806H20.6452V10.624L22.7913 13.9955C23.8846 15.7132 24.8115 17.5444 25.564 19.4395C25.0539 20.443 24.7742 21.563 24.7742 22.7097V29.5721C24.4088 29.4224 24.0816 29.2389 23.7318 29.0393C22.7737 28.4914 21.6865 27.871 19.6048 27.871C17.5247 27.871 16.4385 28.4914 15.4798 29.0393C14.6386 29.5207 13.9128 29.9355 12.38 29.9355C10.8488 29.9355 10.1215 29.5207 9.28024 29.0393C8.75453 28.7399 8.17238 28.4138 7.40826 28.1825C7.9133 23.1492 9.56703 18.2989 12.3034 13.9995ZM23.1371 61.9355C22.4713 61.9355 21.8458 61.6764 21.375 61.2056C20.5151 60.3448 19.3715 59.871 18.1532 59.871H16.9435C15.7253 59.871 14.5816 60.3448 13.7208 61.2056C13.251 61.6764 12.6255 61.9355 11.9597 61.9355H11.0071C8.35282 61.9355 6.19354 59.7762 6.19354 57.122C6.19354 56.379 6.36895 55.6346 6.70161 54.9698L7.44254 53.4864C8.65121 51.0701 9.29032 48.3644 9.29032 45.6608C9.29032 44.5388 9.1749 43.4219 8.96119 42.3226L8.4501 40.2581C7.91834 38.376 7.57358 36.4511 7.39012 34.5096C7.68598 34.6436 7.96371 34.7964 8.25604 34.9627C9.21471 35.5086 10.3009 36.129 12.38 36.129C14.4597 36.129 15.5459 35.5076 16.5045 34.9607C17.3463 34.4793 18.0726 34.0645 19.6048 34.0645C21.1386 34.0645 21.8654 34.4793 22.7077 34.9607C23.2772 35.2868 23.9093 35.6436 24.7732 35.877V56.7742C24.7732 58.5 25.3831 60.0857 26.3967 61.3296C25.6951 61.7167 24.9062 61.9355 24.0897 61.9355H23.1371ZM52.6452 61.9355H32C29.5081 61.9355 27.4229 60.1588 26.943 57.8064H57.7021C57.2223 60.1588 55.1371 61.9355 52.6452 61.9355Z" fill="#322153" stroke="#322153" stroke-width="2" mask="url(#path-4-inside-1)"/>
<path d="M42.7067 33.2924L42.3226 32.8313L41.9385 33.2923L38.6243 37.2692C38.6242 37.2693 38.6241 37.2694 38.624 37.2695C38.624 37.2696 38.624 37.2696 38.624 37.2696C38.023 37.9895 37.6935 38.9028 37.6935 39.8402C37.6935 42.0551 39.4947 43.8548 41.7092 43.8548H42.937C45.1505 43.8548 46.9516 42.055 46.9516 39.8402C46.9516 38.9027 46.6221 37.9892 46.0198 37.2692C46.0197 37.2691 46.0197 37.269 46.0196 37.2689L42.7067 33.2924ZM42.936 44.9194H41.7082C38.9082 44.9194 36.629 42.6402 36.629 39.8402C36.629 38.6543 37.0472 37.4989 37.8055 36.5883C37.8055 36.5882 37.8055 36.5882 37.8056 36.5881L42.3226 31.1686L46.8384 36.5869C46.8385 36.587 46.8385 36.587 46.8385 36.5871C47.5981 37.5 48.0161 38.6545 48.0161 39.8402C48.0161 42.6401 45.737 44.9194 42.936 44.9194Z" fill="#322153" stroke="#322153"/>
</svg>
